<?xml version="1.0" standalone="no"?>
<!DOCTYPE svg PUBLIC "-//W3C//DTD SVG 20010904//EN"
 "http://www.w3.org/TR/2001/REC-SVG-20010904/DTD/svg10.dtd">
<svg version="1.0" xmlns="http://www.w3.org/2000/svg"
 width="442.000000pt" height="535.000000pt" viewBox="0 0 442.000000 535.000000"
 preserveAspectRatio="xMidYMid meet">

<g transform="translate(0.000000,535.000000) scale(0.100000,-0.100000)"
fill="#ffffff" stroke="none">
<path d="M3419 5201 c-20 -21 -65 -52 -100 -68 -73 -35 -87 -48 -122 -118
l-25 -50 -15 35 c-8 19 -18 50 -22 68 l-7 32 -60 -42 c-105 -73 -140 -115
-171 -201 -16 -42 -32 -77 -37 -77 -4 0 -17 14 -27 30 l-20 31 -65 -70 c-77
-81 -108 -150 -108 -240 0 -66 20 -130 79 -250 64 -133 58 -143 -68 -111 -488
124 -1020 42 -1450 -225 -308 -190 -552 -464 -719 -806 l-47 -95 -90 -13
c-107 -16 -205 -44 -235 -69 l-21 -17 45 -86 c107 -201 129 -517 71 -1044 -41
-375 -40 -358 -15 -409 55 -115 270 -206 453 -192 44 3 77 1 77 -4 0 -5 53
-64 117 -131 133 -137 276 -249 429 -335 77 -44 102 -63 98 -74 -4 -8 -19 -57
-35 -108 -77 -254 -79 -394 -4 -469 96 -96 245 31 394 336 27 55 51 105 53
110 2 5 32 3 73 -5 210 -41 483 -38 703 6 236 48 521 171 711 307 114 82 289
247 377 357 70 86 158 223 200 309 l26 53 92 22 c124 29 228 82 297 151 119
121 126 189 37 396 -83 193 -83 192 -82 425 0 214 7 300 50 613 14 104 24 191
21 194 -13 12 -170 24 -249 19 -77 -6 -194 -30 -238 -50 -11 -4 -23 7 -43 39
-100 159 -281 350 -454 482 -62 47 -113 89 -113 93 0 25 47 60 98 75 199 58
366 221 403 396 10 48 6 149 -7 170 -3 5 -22 -2 -42 -16 -20 -13 -38 -23 -40
-20 -3 2 3 23 12 45 23 59 38 176 31 242 l-7 57 -35 -14 c-20 -8 -38 -15 -42
-15 -3 0 -6 46 -6 102 0 74 -5 119 -18 158 -19 54 -52 110 -65 110 -4 -1 -23
-18 -43 -39z m51 -56 c0 -5 -5 -3 -10 5 -5 8 -10 20 -10 25 0 6 5 3 10 -5 5
-8 10 -19 10 -25z m27 -107 c-3 -8 -6 -5 -6 6 -1 11 2 17 5 13 3 -3 4 -12 1
-19z m0 -130 c-3 -8 -6 -5 -6 6 -1 11 2 17 5 13 3 -3 4 -12 1 -19z m-137 -31
c0 -5 -25 -37 -56 -70 -75 -84 -88 -110 -84 -177 10 -162 -15 -232 -109 -306
-48 -39 -140 -94 -155 -94 -3 0 17 23 44 51 26 27 65 83 86 122 37 69 39 76
39 167 1 116 10 134 125 238 52 48 80 81 80 95 1 22 1 22 15 3 8 -11 15 -24
15 -29z m227 -129 c-2 -13 -4 -3 -4 22 0 25 2 35 4 23 2 -13 2 -33 0 -45z
m-736 -25 c13 -16 12 -17 -3 -4 -10 7 -18 15 -18 17 0 8 8 3 21 -13z m145 -79
c27 -65 14 -111 -53 -185 -20 -22 -46 -61 -58 -86 l-22 -46 -5 37 c-5 47 11
94 51 144 45 58 63 106 55 149 -8 45 11 37 32 -13z m389 -187 c10 -17 16 -39
13 -57 -4 -26 -1 -30 19 -30 13 0 40 7 60 15 98 41 9 -50 -109 -110 -81 -42
-107 -48 -75 -17 7 8 14 53 17 116 4 78 10 109 24 131 l20 30 7 -26 c3 -14 14
-38 24 -52z m183 36 c-10 -2 -26 -2 -35 0 -10 3 -2 5 17 5 19 0 27 -2 18 -5z
m-652 -311 c109 -45 254 -114 254 -121 -1 -3 -10 -17 -21 -30 l-19 -24 -108
50 c-59 28 -128 58 -153 67 l-47 18 11 34 c6 19 11 34 12 34 1 0 33 -13 71
-28z m-390 -56 c466 -97 871 -368 1142 -761 l41 -60 -35 -30 -36 -30 37 -80
c67 -145 94 -223 115 -324 56 -274 39 -624 -43 -907 l-24 -81 81 43 c80 43
116 54 116 34 0 -21 -65 -209 -100 -291 -106 -245 -303 -501 -515 -671 -830
-663 -2035 -474 -2622 412 -62 93 -118 198 -110 206 11 12 153 5 207 -10 30
-8 55 -14 56 -13 0 1 -21 98 -47 216 -71 320 -83 411 -83 661 0 251 9 304 78
437 l44 85 -41 18 c-38 17 -141 40 -240 55 l-38 6 61 117 c291 555 773 901
1377 987 151 22 425 13 579 -19z m1681 -810 c3 -2 -7 -98 -22 -213 -36 -283
-45 -467 -34 -648 11 -171 13 -181 81 -328 54 -119 67 -184 48 -243 -16 -46
-94 -132 -161 -175 -51 -32 -154 -69 -193 -69 l-23 0 37 108 c20 59 42 129 48
155 14 53 27 58 66 22 35 -33 35 -86 0 -140 l-27 -40 37 35 c68 64 93 141 61
186 -37 54 -126 67 -226 34 -34 -12 -63 -19 -66 -16 -3 2 4 58 16 123 44 248
48 421 15 662 -16 120 -37 195 -98 349 l-44 112 27 19 c76 54 202 82 345 77
59 -3 110 -7 113 -10z m-3562 -371 c44 -9 83 -18 86 -21 3 -2 -7 -29 -22 -61
-50 -102 -61 -162 -66 -369 -7 -251 11 -390 103 -816 l6 -27 -73 6 c-135 10
-247 -35 -285 -115 -19 -41 -23 -129 -6 -158 10 -17 11 -15 12 13 0 17 5 44
11 60 11 31 67 93 83 93 6 0 22 -23 36 -51 14 -28 48 -88 77 -133 l52 -81 -31
-9 c-43 -13 -177 8 -242 37 -64 29 -122 88 -137 136 -8 28 -6 79 10 221 37
336 45 443 45 660 0 250 -16 365 -70 501 -19 48 -34 89 -34 92 0 8 69 27 135
38 70 11 215 4 310 -16z m935 -2344 c63 -23 116 -44 118 -49 4 -12 -122 -254
-167 -321 -67 -98 -122 -127 -168 -87 -27 24 -28 28 -27 113 1 71 8 113 39
218 51 176 52 178 73 172 9 -3 69 -24 132 -46z"/>
<path d="M2105 4063 c-38 -10 -55 -34 -55 -80 0 -36 5 -49 26 -66 48 -40 84
-75 84 -84 0 -4 -4 -14 -9 -22 -12 -19 -31 -4 -31 25 0 21 -4 24 -36 24 -37 0
-37 0 -31 -37 9 -53 29 -68 88 -68 41 0 54 4 70 24 39 48 20 115 -43 158 -29
19 -43 36 -43 51 0 28 19 30 23 2 3 -16 11 -20 38 -20 29 0 34 3 34 24 0 48
-58 83 -115 69z"/>
<path d="M2300 4050 c-1 -3 -9 -59 -19 -125 -20 -130 -17 -155 26 -174 13 -6
39 -11 57 -11 59 0 68 15 92 156 l21 129 -34 9 c-19 4 -36 6 -38 4 -3 -2 -13
-57 -24 -122 -10 -64 -21 -120 -25 -123 -17 -17 -18 16 -3 106 24 144 24 148
-18 153 -19 2 -35 2 -35 -2z"/>
<path d="M1749 4007 c-38 -29 -41 -52 -18 -149 25 -110 38 -134 78 -143 40 -9
99 17 111 50 13 34 -26 211 -52 237 -21 21 -94 24 -119 5z m70 -74 c32 -122
40 -186 20 -166 -11 11 -49 153 -49 186 0 31 19 18 29 -20z"/>
<path d="M2516 3873 c-20 -80 -35 -147 -34 -148 2 -2 18 -6 36 -10 35 -7 34
-9 52 63 10 40 12 42 50 42 47 0 67 23 76 91 8 55 -8 71 -88 92 l-56 15 -36
-145z m117 70 c7 -13 -13 -73 -23 -73 -11 0 -13 24 -4 58 6 22 19 29 27 15z"/>
<path d="M1590 3957 c-14 -6 -26 -12 -28 -13 -9 -5 103 -274 114 -274 7 0 24
4 38 9 l25 10 -53 138 c-29 75 -57 138 -62 139 -5 2 -20 -2 -34 -9z"/>
<path d="M2717 3814 c-32 -75 -56 -138 -55 -140 2 -1 29 -14 60 -28 56 -24 58
-24 68 -6 15 28 13 36 -15 48 -25 11 -25 13 -10 41 11 22 20 28 36 24 36 -10
55 41 20 52 -17 5 -18 10 -10 35 10 26 13 28 35 18 28 -13 30 -12 39 22 6 24
2 27 -47 45 -29 11 -55 21 -58 23 -3 1 -32 -59 -63 -134z"/>
<path d="M1389 3877 c-51 -34 -50 -66 5 -176 25 -49 55 -95 65 -101 31 -16 60
-12 84 13 12 13 34 27 49 31 l28 6 -37 74 -37 75 -39 -20 c-27 -14 -37 -25
-33 -35 3 -9 6 -18 6 -20 0 -2 6 -4 14 -4 7 0 19 -14 26 -30 13 -32 9 -47 -10
-35 -12 7 -90 159 -90 175 0 19 20 10 31 -14 11 -24 12 -24 45 -8 19 8 34 20
34 25 0 19 -60 67 -83 67 -13 0 -39 -10 -58 -23z"/>
<path d="M2902 3735 c-40 -68 -72 -128 -72 -132 0 -5 13 -17 30 -26 l29 -18
32 56 c29 52 49 69 49 43 0 -7 -11 -31 -25 -53 -31 -51 -31 -61 3 -79 28 -14
28 -14 56 39 19 33 27 61 24 78 -3 16 -1 24 7 21 18 -7 55 40 61 77 7 39 -3
50 -77 92 l-45 27 -72 -125z m128 23 c-1 -21 -28 -51 -39 -43 -7 4 -5 14 5 31
17 26 34 32 34 12z"/>
<path d="M1208 3767 c-28 -19 -46 -37 -43 -45 11 -29 159 -232 169 -232 6 0
33 17 60 36 l48 36 -20 20 c-17 17 -23 18 -42 8 -20 -11 -25 -9 -41 11 -15 21
-16 26 -3 40 18 20 18 33 -1 49 -12 10 -19 10 -27 2 -17 -17 -26 -15 -38 9 -9
16 -8 24 5 39 14 15 14 21 3 39 -7 12 -15 21 -18 20 -3 0 -26 -15 -52 -32z"/>
<path d="M3106 3605 c-47 -63 -86 -117 -86 -119 0 -3 13 -14 29 -25 l28 -20
91 119 91 119 -26 21 c-14 11 -29 20 -33 20 -4 0 -46 -52 -94 -115z"/>
<path d="M2016 3649 c-548 -76 -983 -479 -1101 -1019 -22 -103 -31 -327 -16
-431 28 -194 108 -408 209 -555 194 -285 477 -474 815 -545 145 -31 371 -31
514 -1 261 56 474 171 658 356 194 195 314 426 361 696 25 145 15 390 -21 529
-46 178 -117 327 -225 469 -183 244 -476 426 -780 487 -95 19 -324 27 -414 14z
m87 -76 c-13 -2 -35 -2 -50 0 -16 2 -5 4 22 4 28 0 40 -2 28 -4z m210 0 c-13
-2 -35 -2 -50 0 -16 2 -5 4 22 4 28 0 40 -2 28 -4z m-310 -10 c-7 -2 -19 -2
-25 0 -7 3 -2 5 12 5 14 0 19 -2 13 -5z m390 0 c-7 -2 -21 -2 -30 0 -10 3 -4
5 12 5 17 0 24 -2 18 -5z m-446 -9 c-3 -3 -12 -4 -19 -1 -8 3 -5 6 6 6 11 1
17 -2 13 -5z m575 -18 c46 -14 120 -41 163 -61 90 -41 257 -149 295 -190 14
-16 -14 1 -61 37 -141 107 -263 168 -427 213 -48 13 -80 24 -71 24 9 1 55 -10
101 -23z m-655 -2 c-3 -3 -12 -4 -19 -1 -8 3 -5 6 6 6 11 1 17 -2 13 -5z
m-147 -49 c-14 -8 -29 -14 -35 -14 -5 0 1 6 15 14 14 8 30 14 35 14 6 0 -1 -6
-15 -14z m-130 -60 c0 -2 -10 -9 -22 -15 -22 -11 -22 -10 -4 4 21 17 26 19 26
11z m-140 -88 c0 -2 -10 -12 -22 -23 l-23 -19 19 23 c18 21 26 27 26 19z m-50
-40 c0 -1 -33 -34 -72 -72 l-73 -70 70 73 c64 67 75 77 75 69z m1671 -119 c46
-20 123 -122 188 -248 103 -200 135 -335 136 -560 0 -169 -11 -243 -57 -384
-31 -98 -115 -266 -157 -317 l-27 -31 -81 26 c-115 36 -189 46 -338 46 -182
-1 -321 -26 -432 -79 l-85 -41 -92 34 c-116 44 -154 53 -246 60 -155 12 -302
-20 -485 -108 -84 -40 -91 -42 -109 -27 -40 33 -135 172 -183 267 -100 195
-138 369 -130 594 5 156 28 266 83 408 27 68 33 76 84 107 336 202 587 221
955 71 l80 -32 140 68 c284 138 393 169 590 164 90 -2 141 -7 166 -18z m-258
-1545 c-35 -2 -91 -2 -125 0 -35 2 -7 3 62 3 69 0 97 -1 63 -3z m-215 -10
c-10 -2 -26 -2 -35 0 -10 3 -2 5 17 5 19 0 27 -2 18 -5z m427 -29 c36 -14 65
-29 65 -33 0 -4 -17 -23 -37 -42 l-38 -34 34 37 34 37 -49 21 c-27 12 -74 28
-104 36 -49 13 -51 13 -12 9 23 -3 72 -17 107 -31z m-502 19 c-7 -2 -19 -2
-25 0 -7 3 -2 5 12 5 14 0 19 -2 13 -5z m-680 -10 c-18 -2 -48 -2 -65 0 -18 2
-4 4 32 4 36 0 50 -2 33 -4z m620 0 c-7 -2 -19 -2 -25 0 -7 3 -2 5 12 5 14 0
19 -2 13 -5z m-750 -10 c-7 -2 -21 -2 -30 0 -10 3 -4 5 12 5 17 0 24 -2 18 -5z
m235 0 c-10 -2 -26 -2 -35 0 -10 3 -2 5 17 5 19 0 27 -2 18 -5z m-295 -10 c-7
-2 -19 -2 -25 0 -7 3 -2 5 12 5 14 0 19 -2 13 -5z m461 -28 l116 -35 50 25
c27 14 53 25 57 25 4 -1 -18 -14 -50 -31 l-57 -29 -123 36 c-152 45 -145 42
-126 43 9 1 69 -15 133 -34z m-614 -20 c-14 -8 -29 -14 -35 -14 -5 0 1 6 15
14 14 8 30 14 35 14 6 0 -1 -6 -15 -14z m1510 -58 c0 -2 -12 -14 -27 -28 l-28
-24 24 28 c23 25 31 32 31 24z m-70 -61 c0 -2 -8 -10 -17 -17 -16 -13 -17 -12
-4 4 13 16 21 21 21 13z"/>
<path d="M2118 2868 c-14 -12 -14 -35 3 -248 9 -129 27 -377 39 -550 11 -173
23 -321 25 -327 2 -7 13 -13 23 -13 40 0 41 16 22 275 -10 138 -24 345 -30
460 -21 400 -30 444 -82 403z"/>
<path d="M1675 2673 c-108 -14 -240 -52 -227 -65 6 -6 32 -3 73 10 167 51 279
49 412 -10 98 -42 126 -27 32 18 -92 44 -190 60 -290 47z"/>
<path d="M2415 2610 c-72 -8 -145 -33 -145 -50 0 -14 31 -12 78 4 23 9 106 17
201 22 126 5 161 10 161 20 0 11 -24 14 -112 13 -62 -1 -144 -5 -183 -9z"/>
<path d="M1498 2443 c-36 -9 -17 -21 20 -12 20 5 96 9 167 9 138 0 213 -13
285 -50 22 -11 40 -17 40 -12 0 12 -65 42 -125 58 -48 13 -344 18 -387 7z"/>
<path d="M2360 2390 c-30 -11 -41 -17 -25 -14 17 3 108 8 202 11 95 3 170 9
167 14 -3 5 -69 9 -147 8 -113 0 -153 -4 -197 -19z"/>
<path d="M2417 2206 c-72 -21 -157 -57 -157 -67 0 -4 30 4 68 18 61 25 79 27
212 27 80 1 167 -3 194 -8 39 -7 48 -6 44 5 -7 20 -52 28 -188 34 -90 3 -138
1 -173 -9z"/>
<path d="M1720 2194 c-55 -11 -170 -47 -170 -55 0 -4 26 0 58 9 82 23 293 22
346 -1 39 -17 53 -17 42 1 -18 30 -202 60 -276 46z"/>
<path d="M2475 1875 c-93 -20 -155 -50 -155 -75 0 -32 26 -35 99 -11 36 11 90
25 119 31 83 15 307 4 411 -20 95 -23 111 -21 111 10 0 27 -21 36 -143 59
-126 25 -345 27 -442 6z"/>
<path d="M1740 1858 c-60 -4 -147 -18 -205 -33 -55 -15 -133 -35 -174 -46 -41
-10 -80 -24 -88 -30 -18 -15 -17 -44 2 -59 13 -11 41 -5 163 33 189 60 216 66
342 73 89 6 118 3 187 -15 112 -29 123 -28 123 9 0 27 -5 31 -52 45 -76 23
-177 31 -298 23z"/>
<path d="M1037 3624 c-33 -29 -41 -13 82 -156 l84 -98 49 42 c49 41 49 41 30
61 -16 16 -23 17 -42 7 -12 -6 -23 -10 -24 -8 -1 2 -35 41 -76 88 -40 47 -73
86 -74 87 -1 1 -14 -10 -29 -23z"/>
<path d="M3208 3522 c-91 -91 -100 -122 -49 -173 57 -56 104 -39 205 79 56 65
60 97 15 141 -52 52 -79 44 -171 -47z m140 8 c-7 -21 -130 -150 -144 -150 -24
0 -16 12 58 87 67 67 95 88 86 63z"/>
<path d="M918 3504 c-28 -15 -58 -61 -58 -88 0 -39 155 -176 198 -176 47 1 92
51 92 104 0 34 -157 175 -195 175 -5 0 -22 -6 -37 -15z m100 -120 c65 -59 89
-92 62 -82 -16 5 -160 131 -160 140 0 21 32 3 98 -58z"/>
<path d="M3369 3346 l-116 -92 22 -28 c25 -32 27 -31 92 21 23 19 44 30 47 24
7 -11 -9 -29 -60 -67 -39 -31 -40 -31 -14 -63 l20 -23 50 38 c33 25 50 46 50
60 0 17 5 20 23 17 29 -6 87 46 87 77 0 21 -46 96 -72 117 -10 8 -40 -10 -129
-81z m121 -36 c-29 -22 -40 -25 -40 -9 0 19 44 49 55 38 7 -7 2 -17 -15 -29z"/>
<path d="M745 3284 c-32 -35 -41 -79 -21 -109 20 -30 148 -114 186 -121 52
-11 100 39 100 105 0 38 -65 94 -81 70 -31 -45 -31 -50 -5 -70 27 -21 34 -39
15 -39 -14 0 -169 100 -169 109 0 19 16 19 48 -1 l35 -21 18 24 c25 33 24 42
-10 62 -43 25 -87 22 -116 -9z"/>
<path d="M3488 1926 c-4 -20 0 -25 25 -30 47 -10 57 -7 57 13 0 12 -11 23 -31
30 -44 15 -46 14 -51 -13z"/>
<path d="M3474 1868 c-7 -24 9 -38 48 -38 54 0 47 33 -10 49 -27 8 -32 7 -38
-11z"/>
<path d="M3460 1797 c-32 -16 -51 -71 -38 -109 8 -22 25 -33 90 -58 100 -39
135 -41 160 -10 53 66 31 114 -70 151 -101 38 -114 40 -142 26z m109 -88 c45
-17 81 -35 81 -40 0 -14 -12 -11 -92 17 -75 27 -119 54 -86 54 9 0 53 -14 97
-31z"/>
<path d="M913 1689 c-56 -36 -39 -70 22 -45 38 16 41 23 23 49 -12 15 -15 15
-45 -4z"/>
<path d="M3370 1640 c-14 -26 -7 -36 42 -61 22 -11 38 -22 36 -24 -1 -2 -27 1
-55 7 -55 11 -83 2 -83 -27 0 -13 227 -152 234 -144 2 2 8 14 15 26 10 20 6
24 -42 52 -54 33 -50 34 40 11 28 -7 34 -5 48 17 9 14 15 26 13 28 -6 6 -229
135 -233 135 -2 0 -9 -9 -15 -20z"/>
<path d="M943 1630 c-31 -18 -42 -43 -25 -53 9 -6 82 23 82 32 0 4 -6 15 -12
24 -12 16 -15 16 -45 -3z"/>
<path d="M934 1529 c-43 -29 -96 -63 -117 -76 l-38 -24 21 -29 21 -30 45 31
c42 28 47 30 63 15 15 -14 20 -14 36 -2 17 12 17 16 6 30 -12 14 -11 19 5 31
25 19 31 19 44 -5 9 -16 15 -18 30 -10 26 14 25 22 -8 75 l-28 46 -80 -52z"/>
<path d="M3265 1474 c-9 -14 -13 -30 -8 -35 4 -4 53 -41 107 -82 l100 -75 18
23 c10 13 18 27 18 32 -1 7 -191 153 -210 161 -4 1 -15 -9 -25 -24z"/>
<path d="M1010 1384 c-131 -101 -126 -92 -89 -142 34 -46 40 -49 60 -26 9 12
10 20 2 33 -10 15 1 27 73 82 46 35 84 69 84 75 0 10 -31 44 -41 44 -2 0 -42
-30 -89 -66z"/>
<path d="M3202 1397 l-22 -23 35 -34 c46 -44 34 -58 -16 -18 l-40 32 -22 -22
-22 -22 97 -97 97 -97 26 24 25 24 -42 43 c-51 52 -42 71 10 20 44 -43 52 -44
77 -17 19 21 18 22 -75 115 -52 52 -97 95 -101 95 -3 0 -15 -10 -27 -23z"/>
<path d="M1088 1279 c-79 -83 -86 -112 -39 -160 48 -47 74 -40 153 40 58 59
68 75 68 104 0 27 -7 41 -31 61 -51 43 -75 35 -151 -45z m123 -6 c-17 -31
-119 -125 -131 -121 -15 5 107 138 126 138 11 0 12 -4 5 -17z"/>
<path d="M3038 1253 c-26 -17 -48 -51 -48 -78 0 -23 120 -165 145 -171 35 -9
63 4 79 34 8 15 18 26 23 24 4 -2 12 3 17 11 7 11 -2 28 -33 66 -24 28 -46 51
-50 51 -4 0 -18 -11 -30 -24 -18 -19 -21 -28 -12 -43 6 -10 11 -14 11 -9 0 5
9 1 20 -9 20 -19 27 -45 11 -45 -9 0 -121 133 -121 144 0 13 22 5 38 -14 17
-19 17 -19 44 5 l28 24 -31 25 c-35 30 -54 32 -91 9z"/>
<path d="M1230 1144 l-80 -106 27 -21 26 -21 33 40 c19 21 34 42 34 47 0 11
20 8 20 -4 0 -6 -14 -30 -31 -55 l-32 -43 24 -20 24 -20 23 27 c30 35 55 82
48 90 -3 3 4 10 16 16 34 18 61 61 55 88 -5 20 -83 88 -101 88 -3 0 -42 -48
-86 -106z m112 -6 c-28 -28 -39 -17 -16 17 12 18 20 23 28 15 7 -7 4 -17 -12
-32z"/>
<path d="M2900 1154 c-19 -14 -41 -29 -48 -33 -11 -6 4 -34 58 -117 39 -60 76
-110 81 -112 4 -2 29 11 54 28 40 27 44 34 34 51 -7 14 -16 18 -27 14 -9 -4
-22 -9 -28 -11 -5 -3 -17 7 -24 22 -13 23 -12 27 3 35 26 15 4 51 -27 43 -14
-3 -27 1 -36 12 -13 14 -12 18 7 33 19 16 20 19 4 38 l-16 21 -35 -24z"/>
<path d="M1422 1092 c-17 -31 -48 -85 -67 -119 l-35 -61 51 -32 c28 -17 52
-30 53 -28 1 2 8 11 16 21 12 17 11 21 -9 36 -20 16 -22 21 -11 40 9 17 17 21
35 17 32 -8 55 27 28 43 -14 8 -15 13 -5 35 10 23 14 25 32 14 16 -11 22 -9
34 7 17 23 10 32 -55 65 l-35 18 -32 -56z"/>
<path d="M2765 1083 c-16 -8 -31 -17 -33 -18 -1 -1 5 -24 13 -50 8 -27 13 -51
11 -53 -3 -2 -16 17 -31 42 -15 25 -30 46 -33 45 -4 0 -24 -8 -44 -17 l-37
-17 56 -127 56 -127 28 15 28 14 -30 65 c-40 89 -36 92 12 13 44 -71 46 -73
68 -59 12 8 12 18 -3 72 -10 35 -20 70 -22 78 -3 9 11 -17 30 -56 19 -40 39
-73 43 -73 5 0 17 6 27 13 17 13 15 20 -35 135 -30 67 -58 122 -64 122 -5 -1
-23 -8 -40 -17z"/>
<path d="M1575 1053 c-24 -60 -85 -236 -83 -239 2 -1 15 -5 31 -9 19 -5 27 -3
27 6 0 8 9 32 20 54 l18 40 -5 -61 c-6 -61 -5 -61 25 -72 l30 -10 46 126 c25
69 43 129 39 133 -5 4 -17 9 -27 11 -15 2 -24 -7 -36 -39 -24 -64 -31 -62 -24
4 6 57 5 60 -17 66 -34 9 -36 9 -44 -10z"/>
<path d="M1747 984 c-3 -20 0 -28 14 -31 24 -7 24 -8 -6 -123 -13 -52 -23 -96
-21 -97 1 -2 16 -6 34 -9 34 -7 29 -17 68 138 14 58 19 67 38 65 16 -2 21 3
21 22 0 21 -7 27 -45 36 -105 27 -97 27 -103 -1z"/>
<path d="M2515 986 c-22 -7 -39 -17 -39 -22 1 -5 10 -66 19 -136 10 -71 21
-128 26 -128 30 0 59 22 59 45 0 30 12 32 31 6 10 -15 21 -18 42 -14 24 5 28
10 23 28 -10 38 -105 235 -113 234 -4 -1 -26 -7 -48 -13z m50 -113 c14 -32 13
-75 0 -61 -6 6 -24 98 -19 98 2 0 11 -17 19 -37z"/>
<path d="M1915 875 c-9 -49 -19 -112 -22 -138 l-6 -48 34 3 33 3 18 100 c9 55
20 114 23 131 5 30 4 32 -29 36 l-34 4 -17 -91z"/>
<path d="M2259 949 c-41 -15 -50 -50 -40 -153 7 -75 12 -93 31 -108 29 -23 82
-23 111 1 22 18 24 25 21 108 -3 102 -14 136 -48 152 -29 13 -40 13 -75 0z
m53 -130 c4 -46 5 -90 2 -98 -11 -31 -22 8 -28 97 -4 72 -3 93 7 90 7 -3 15
-36 19 -89z"/>
<path d="M2029 908 c0 -24 -4 -83 -8 -133 -7 -92 -4 -105 30 -105 13 0 19 14
24 58 l8 57 15 -57 c13 -54 16 -58 42 -58 33 0 34 5 45 178 l7 92 -31 0 c-31
0 -31 0 -32 -57 0 -63 -9 -56 -29 25 -10 38 -14 42 -40 42 -28 0 -30 -2 -31
-42z"/>
</g>
</svg>
