<?xml version="1.0" encoding="UTF-8" standalone="no"?>
<svg
   xmlns:dc="http://purl.org/dc/elements/1.1/"
   xmlns:cc="http://creativecommons.org/ns#"
   xmlns:rdf="http://www.w3.org/1999/02/22-rdf-syntax-ns#"
   xmlns:svg="http://www.w3.org/2000/svg"
   xmlns="http://www.w3.org/2000/svg"
   viewBox="0 0 793.70135 1122.52"
   height="1122.52"
   width="793.70135"
   xml:space="preserve"
   id="svg2"
   version="1.1"><metadata
     id="metadata8"><rdf:RDF><cc:Work
         rdf:about=""><dc:format>image/svg+xml</dc:format><dc:type
           rdf:resource="http://purl.org/dc/dcmitype/StillImage" /></cc:Work></rdf:RDF></metadata><defs
     id="defs6" /><g
     transform="matrix(1.3333333,0,0,-1.3333333,0,1122.52)"
     id="g10"><path
       id="path12"
       style="fill:#ed861e;fill-opacity:1;fill-rule:evenodd;stroke:#ed861e;stroke-width:0.56690001;stroke-linecap:butt;stroke-linejoin:miter;stroke-miterlimit:22.92558479;stroke-dasharray:none;stroke-opacity:1"
       d="m 219.1876,499.614 c -20.5932,7.6036 -39.8673,14.72 -60.4602,22.3234 -2.0772,0.7664 -5.3181,2.103 -7.4724,1.3847 -5.0284,-1.6767 -7.1036,-9.5349 -1.228,-12.7321 8.9419,-4.8691 71.4022,-25.2366 78.302,-27.7027 9.5403,37.0307 48.6116,60.5559 85.4745,56.8091 32.398,-3.2933 58.3257,-27.2015 67.9839,-56.8091 19.3529,6.9327 60.2526,20.6745 79.2935,29.5055 1.5477,0.7178 2.7919,1.7929 3.4209,3.5881 0.5663,1.6155 0.6358,3.9138 -0.0159,5.3912 -0.5624,1.2759 -1.6588,2.8301 -3.443,3.3395 -2.4259,0.6931 -6.1214,-0.1128 -11.4378,-2.1804 -20.2124,-7.6938 -40.4251,-15.3876 -60.6376,-23.0814 -1.796,5.9276 -4.6054,10.8411 -9.7804,16.4311 5.9987,6.129 11.9971,12.2578 17.9958,18.3869 7.681,7.8888 23.8238,24.1631 36.5576,37.4859 7.0676,7.3947 13.4977,13.1763 15.8661,17.7905 1.8464,3.5978 -0.7223,7.4478 -1.9149,8.549 -1.087,1.0038 -2.9245,2.5773 -6.0984,1.2702 -5.0108,-2.0639 -11.7113,-9.2177 -18.9819,-16.9769 -18.0627,-19.0576 -34.6544,-36.8799 -52.1283,-55.1365 -7.6708,6.7148 -13.3756,11.314 -22.6304,16.0617 5.7379,14.0576 13.8129,29.7457 20.5393,44.9669 3.1912,7.2221 6.5395,14.307 8.3367,21.1234 1.2931,4.9057 -1.9438,6.967 -4.6231,7.5498 -2.8476,0.6191 -5.2404,-0.4881 -7.0021,-3.6598 -9.6497,-21.5166 -19.2997,-43.033 -28.9494,-64.5497 -9.4133,3.2826 -14.942,4.2968 -25.0376,5.086 0.007,20.6223 0.0139,41.2446 0.021,61.8669 -0.2608,11.7366 -0.5216,23.4729 -0.7824,35.2095 -0.0705,6.1789 -13.5433,6.1219 -13.6468,0.4459 -0.0153,-2.1048 -0.0303,-4.2092 -0.0456,-6.3139 0.2608,-11.867 0.5216,-23.734 0.7823,-35.6009 0,-18.2568 0,-37.3405 0,-55.5973 -7.4126,-0.8442 -14.642,-2.0101 -21.9081,-3.8676 -2.7385,6.5202 -5.4771,13.0405 -8.2156,19.5607 -3.1298,6.7811 -6.2595,13.5624 -9.3892,20.3434 -1.4534,3.047 -8.498,18.8133 -12.4061,25.2692 -2.1408,3.5359 -4.8564,3.4906 -7.4461,2.5619 -2.2986,-0.8243 -4.6227,-2.16 -4.4986,-5.0935 0.2152,-5.0877 4.3121,-12.9056 5.9638,-16.8693 7.5634,-16.9529 15.4588,-34.2649 23.0222,-51.2178 -8.4073,-4.8555 -14.7076,-9.2336 -21.4574,-16.4628 -7.6216,7.7967 -47.2422,48.5572 -64.16,65.458 -2.3777,2.3754 -4.7786,4.4076 -6.8584,5.6262 -2.2873,1.3402 -4.5289,0.0198 -5.6727,-0.9261 -6.4301,-5.3189 -0.2682,-9.9119 6.2719,-17.3438 12.7798,-13.3013 25.5598,-26.6029 38.3395,-39.9041 7.433,-7.4331 14.8663,-14.8663 22.2993,-22.2994 -3.8744,-5.2829 -9.2906,-13.153 -12.1419,-19.0595 z" /><g
       id="g14"><path
         id="path16"
         style="fill:#6a8e30;fill-opacity:1;fill-rule:evenodd;stroke:#6a8e30;stroke-width:0.56690001;stroke-linecap:butt;stroke-linejoin:miter;stroke-miterlimit:22.92558479;stroke-dasharray:none;stroke-opacity:1"
         d="m 163.5846,422.7823 c -3.8569,-0.6806 -7.7134,-0.9167 -11.5702,-1.5973 -7.5524,-1.6617 -11.0959,-2.0713 -12.6791,-4.9675 -1.4525,-2.6577 -1.7121,-7.1316 1.173,-9.2196 2.1013,-1.5208 6.298,-1.2892 10.8258,-0.559 8.4693,0.9073 17.0036,2.5888 25.4083,2.7224 7.4863,0 14.8607,0.6168 22.4592,0 7.1084,-0.3379 14.2166,-1.3853 21.325,-2.9492 8.0621,-2.3406 22.9085,-6.4709 30.2579,-10.3757 5.7393,-3.0495 13.1281,-7.6382 18.2506,-6.8567 6.1449,0.9372 8.4092,9.792 -0.4139,13.8294 l -14.9729,6.8057 c -6.2764,2.7848 -12.2949,5.1182 -18.8294,6.806 -24.2268,6.9687 -46.4904,7.8395 -71.2343,6.3615 z" /><path
         id="path18"
         style="fill:#6a8e30;fill-opacity:1;fill-rule:evenodd;stroke:#6a8e30;stroke-width:0.56690001;stroke-linecap:butt;stroke-linejoin:miter;stroke-miterlimit:22.92558479;stroke-dasharray:none;stroke-opacity:1"
         d="m 476.748,478.4227 c -32.9391,-4.4512 -66.0127,-13.2018 -96.0741,-27.7106 -58.8177,-30.43 -99.3688,-60.4435 -138.755,-115.0209 -3.9391,-5.4584 -8.4972,-10.4391 -10.425,-14.4442 -2.1317,-4.4286 -1.3547,-7.6672 0.2409,-9.0391 2.1121,-1.8165 7.261,-2.1232 9.7081,0.515 3.9634,4.273 7.5787,8.9116 12.8458,17.288 4.3591,6.9324 10.3464,12.6484 14.5117,18.1219 6.8062,6.9797 12.1941,13.9938 17.6865,19.7968 15.0157,15.8644 28.0445,27.6721 51.857,43.03 24.004,17.0195 47.3136,30.5821 77.2001,39.6433 l 43.0912,11.2629 c 15.6943,3.3942 19.7742,1.5982 23.5448,4.5329 5.1701,4.0249 1.9106,11.8426 -5.432,12.024 z" /><g
         id="g20"><path
           id="path22"
           style="fill:#6a8e30;fill-opacity:1;fill-rule:evenodd;stroke:#6a8e30;stroke-width:0.56690001;stroke-linecap:butt;stroke-linejoin:miter;stroke-miterlimit:22.92558479;stroke-dasharray:none;stroke-opacity:1"
           d="m 136.6223,462.89 c -14.3978,-1.313 -11.6595,-13.5187 -5.643,-15.0333 2.0688,-0.5207 8.4127,1.4247 16.5444,2.4829 29.0416,3.78 50.6798,4.3118 74.27,-0.7444 19.3805,-4.1536 37.4372,-10.2348 54.3736,-18.252 4.6605,-2.2059 14.7141,-8.212 21.3582,-10.9533 3.8271,-1.5789 6.9435,-0.7135 8.5987,1.6098 1.1494,1.6129 1.3405,5.0935 -0.1222,6.7538 -5.8388,6.6277 -23.6069,15.2708 -41.7989,22.3075 -17.1147,6.6203 -35.0994,11.2915 -44.7933,12.4217 -30.7542,3.5861 -52.9356,2.5872 -82.7875,-0.5927 z" /><path
           id="path24"
           style="fill:#6a8e30;fill-opacity:1;fill-rule:evenodd;stroke:#6a8e30;stroke-width:0.56690001;stroke-linecap:butt;stroke-linejoin:miter;stroke-miterlimit:22.92558479;stroke-dasharray:none;stroke-opacity:1"
           d="m 187.2017,378.7625 c -4.068,-0.1579 -18.5768,-0.0499 -22.3948,-4.7474 -1.7459,-2.1481 -3.1493,-8.2761 3.054,-10.6271 3.2548,-1.2337 8.049,0.4677 13.1601,1.4564 3.9654,0.7671 8.1233,0.7509 11.9021,0.8609 12.1133,0.3529 21.2123,-1.1767 32.5693,-4.1916 5.3509,-1.3995 8.6649,-2.4897 11.8139,-2.7907 3.2811,-0.3138 4.8135,1.5406 5.7419,3.5093 2.937,6.2271 -5.7473,10.0485 -14.9873,12.5586 -14.3765,3.9053 -33.7423,4.3965 -40.8592,3.9716 z" /><path
           id="path26"
           style="fill:#6a8e30;fill-opacity:1;fill-rule:evenodd;stroke:#6a8e30;stroke-width:0.56690001;stroke-linecap:butt;stroke-linejoin:miter;stroke-miterlimit:22.92558479;stroke-dasharray:none;stroke-opacity:1"
           d="m 385.78,400.8254 c -44.8824,-22.9396 -74.9764,-54.0777 -104.5259,-93.1856 -2.1566,-4.3619 -0.2509,-7.6691 1.2682,-8.9963 1.5582,-1.3609 5.7195,-1.847 8.5933,1.5545 6.2773,7.4328 12.4435,15.1311 18.6681,22.637 39.2836,42.0893 60.0624,57.454 97.7414,73.3648 10.2314,4.3203 20.3763,8.5961 30.829,11.7003 12.2789,3.6468 24.4375,5.7053 34.5473,7.7876 5.9505,1.2257 5.1647,9.1347 2.4531,11.9526 -2.7403,2.8474 -23.2075,-1.3737 -43.992,-8.261 -20.0123,-6.6314 -40.3158,-15.8343 -45.5825,-18.5539 z" /><path
           id="path28"
           style="fill:#6a8e30;fill-opacity:1;fill-rule:evenodd;stroke:#6a8e30;stroke-width:0.56690001;stroke-linecap:butt;stroke-linejoin:miter;stroke-miterlimit:22.92558479;stroke-dasharray:none;stroke-opacity:1"
           d="m 355.5096,321.7153 c -1.3943,-1.9069 -3.9699,-5.0636 -2.2592,-9.2605 0.701,-1.7204 4.3949,-3.8741 7.2737,-3.5572 3.634,0.4002 6.3681,6.6223 11.2901,12.2323 5.942,6.7728 12.4966,15.4993 21.3866,20.8412 10.4652,6.2886 21.9671,12.1232 32.7362,13.8073 5.4714,0.8557 9.6738,2.1472 11.1535,4.987 1.8827,3.6141 0.3361,8.5189 -3.9365,9.4563 -5.582,1.2246 -24.8117,-5.0969 -29.6331,-7.5906 -13.3691,-6.9151 -30.7885,-17.3616 -48.0113,-40.9158 z" /></g></g><text
       id="text32"
       style="font-variant:normal;font-weight:normal;font-size:63.38199997px;font-family:ArialMT;-inkscape-font-specification:ArialMT;writing-mode:lr-tb;fill:#ed861e;fill-opacity:1;fill-rule:nonzero;stroke:none"
       transform="matrix(1,0,0,-1,153.9819,225.6622)"><tspan
         id="tspan30"
         y="0"
         x="0 48.061401 67.959999 116.0211 135.91969 180.4846 200.38319 244.9478 264.84619">N.R.E.S.O</tspan></text>
<text
       id="text36"
       style="font-variant:normal;font-weight:normal;font-size:41.71803665px;font-family:ArialMT;-inkscape-font-specification:ArialMT;writing-mode:lr-tb;fill:#ffffff;fill-opacity:1;fill-rule:nonzero;stroke:none"
       transform="matrix(0.9986,0.052,0.052,-0.9986,287.4546,691.7496)"><tspan
         id="tspan34"
         y="0"
         x="0">A</tspan></text>
<text
       id="text40"
       style="font-variant:normal;font-weight:normal;font-size:41.71905899px;font-family:ArialMT;-inkscape-font-specification:ArialMT;writing-mode:lr-tb;fill:#ffffff;fill-opacity:1;fill-rule:nonzero;stroke:none"
       transform="matrix(0.996,-0.0891,-0.0891,-0.996,320.305,692.8421)"><tspan
         id="tspan38"
         y="0"
         x="0">R</tspan></text>
<text
       id="text44"
       style="font-variant:normal;font-weight:normal;font-size:41.71827316px;font-family:ArialMT;-inkscape-font-specification:ArialMT;writing-mode:lr-tb;fill:#ffffff;fill-opacity:1;fill-rule:nonzero;stroke:none"
       transform="matrix(0.9809,0.1943,0.1943,-0.9809,247.6406,683.979)"><tspan
         id="tspan42"
         y="0"
         x="0">M</tspan></text>
<text
       id="text48"
       style="font-variant:normal;font-weight:normal;font-size:41.71855164px;font-family:ArialMT;-inkscape-font-specification:ArialMT;writing-mode:lr-tb;fill:#ffffff;fill-opacity:1;fill-rule:nonzero;stroke:none"
       transform="matrix(0.9743,-0.2251,-0.2251,-0.9743,355.8197,687.8222)"><tspan
         id="tspan46"
         y="0"
         x="0">I</tspan></text>
<text
       id="text52"
       style="font-variant:normal;font-weight:normal;font-size:41.71857834px;font-family:ArialMT;-inkscape-font-specification:ArialMT;writing-mode:lr-tb;fill:#ffffff;fill-opacity:1;fill-rule:nonzero;stroke:none"
       transform="matrix(0.9357,-0.3527,-0.3527,-0.9357,372.6578,684.6316)"><tspan
         id="tspan50"
         y="0"
         x="0">N</tspan></text>
<text
       id="text56"
       style="font-variant:normal;font-weight:normal;font-size:41.72039795px;font-family:ArialMT;-inkscape-font-specification:ArialMT;writing-mode:lr-tb;fill:#ffffff;fill-opacity:1;fill-rule:nonzero;stroke:none"
       transform="matrix(0.9167,0.3996,0.3996,-0.9167,207.0524,666.5511)"><tspan
         id="tspan54"
         y="0"
         x="0">O</tspan></text>
<text
       id="text60"
       style="font-variant:normal;font-weight:normal;font-size:41.72123718px;font-family:ArialMT;-inkscape-font-specification:ArialMT;writing-mode:lr-tb;fill:#ffffff;fill-opacity:1;fill-rule:nonzero;stroke:none"
       transform="matrix(0.8827,-0.47,-0.47,-0.8827,405.722,671.5278)"><tspan
         id="tspan58"
         y="0"
         x="0">S</tspan></text>
<text
       id="text64"
       style="font-variant:normal;font-weight:normal;font-size:41.71939468px;font-family:ArialMT;-inkscape-font-specification:ArialMT;writing-mode:lr-tb;fill:#ffffff;fill-opacity:1;fill-rule:nonzero;stroke:none"
       transform="matrix(0.8136,0.5814,0.5814,-0.8136,179.8588,647.4019)"><tspan
         id="tspan62"
         y="0"
         x="0">P</tspan></text>
<text
       id="text68"
       style="font-variant:normal;font-weight:normal;font-size:41.71892929px;font-family:ArialMT;-inkscape-font-specification:ArialMT;writing-mode:lr-tb;fill:#ffffff;fill-opacity:1;fill-rule:nonzero;stroke:none"
       transform="matrix(0.8177,-0.5756,-0.5756,-0.8177,434.5773,655.251)"><tspan
         id="tspan66"
         y="0"
         x="0">A</tspan></text>
<text
       id="text72"
       style="font-variant:normal;font-weight:normal;font-size:41.72054672px;font-family:ArialMT;-inkscape-font-specification:ArialMT;writing-mode:lr-tb;fill:#ffffff;fill-opacity:1;fill-rule:nonzero;stroke:none"
       transform="matrix(0.7295,0.684,0.684,-0.7295,149.4992,620.9623)"><tspan
         id="tspan70"
         y="0"
         x="0">M</tspan></text>
<text
       id="text76"
       style="font-variant:normal;font-weight:normal;font-size:41.7211647px;font-family:ArialMT;-inkscape-font-specification:ArialMT;writing-mode:lr-tb;fill:#ffffff;fill-opacity:1;fill-rule:nonzero;stroke:none"
       transform="matrix(0.7433,-0.669,-0.669,-0.7433,461.5211,635.9366)"><tspan
         id="tspan74"
         y="0"
         x="0">L</tspan></text>
<text
       id="text80"
       style="font-variant:normal;font-weight:normal;font-size:41.71895599px;font-family:ArialMT;-inkscape-font-specification:ArialMT;writing-mode:lr-tb;fill:#ffffff;fill-opacity:1;fill-rule:nonzero;stroke:none"
       transform="matrix(0.6614,-0.75,-0.75,-0.6614,480.6133,618.6691)"><tspan
         id="tspan78"
         y="0"
         x="0">T</tspan></text>
<text
       id="text84"
       style="font-variant:normal;font-weight:normal;font-size:41.71828079px;font-family:ArialMT;-inkscape-font-specification:ArialMT;writing-mode:lr-tb;fill:#ffffff;fill-opacity:1;fill-rule:nonzero;stroke:none"
       transform="matrix(0.6381,0.7699,0.7699,-0.6381,127.6705,595.8592)"><tspan
         id="tspan82"
         y="0"
         x="0">A</tspan></text>
<text
       id="text88"
       style="font-variant:normal;font-weight:normal;font-size:41.71861649px;font-family:ArialMT;-inkscape-font-specification:ArialMT;writing-mode:lr-tb;fill:#ffffff;fill-opacity:1;fill-rule:nonzero;stroke:none"
       transform="matrix(0.6183,-0.7859,-0.7859,-0.6183,499.2627,598.0317)"><tspan
         id="tspan86"
         y="0"
         x="0">A</tspan></text>
<text
       id="text92"
       style="font-variant:normal;font-weight:normal;font-size:41.71947861px;font-family:ArialMT;-inkscape-font-specification:ArialMT;writing-mode:lr-tb;fill:#ffffff;fill-opacity:1;fill-rule:nonzero;stroke:none"
       transform="matrix(0.5438,0.8392,0.8392,-0.5438,107.5374,566.6763)"><tspan
         id="tspan90"
         y="0"
         x="0">C</tspan></text>
<text
       id="text96"
       style="font-variant:normal;font-weight:normal;font-size:49.4469986px;font-family:ArialMT;-inkscape-font-specification:ArialMT;writing-mode:lr-tb;fill:#ffffff;fill-opacity:1;fill-rule:nonzero;stroke:none"
       transform="matrix(1,0,0,-1,219.7108,163.4151)"><tspan
         id="tspan94"
         y="0"
         x="0 35.700733 55.479534 82.972069 110.4646 137.95712">N°2047</tspan></text>
<text
       id="text100"
       style="font-variant:normal;font-weight:normal;font-size:36.62400055px;font-family:ArialMT;-inkscape-font-specification:ArialMT;writing-mode:lr-tb;fill:#ffffff;fill-opacity:1;fill-rule:nonzero;stroke:none"
       transform="matrix(1,0,0,-1,127.1171,115.1362)"><tspan
         id="tspan98"
         y="0"
         x="0 14.8414 43.935101 66.9496 89.964104 112.9786 135.9931 156.35605 166.53752 189.5515 209.91444 220.09592 251.2283 274.2428 307.396 330.41019 351.36731">“Cañada de Gómez”</tspan></text>
</g></svg>